<svg xmlns="http://www.w3.org/2000/svg" viewBox="0 0 512 512" width="512" height="512">
  <defs>
    <!-- Clip to iOS-style rounded square -->
    <clipPath id="iconShape">
      <rect x="0" y="0" width="512" height="512" rx="112" ry="112"/>
    </clipPath>

    <!-- Deep dark purple-black background gradient -->
    <linearGradient id="bgGrad" x1="0%" y1="0%" x2="100%" y2="100%">
      <stop offset="0%"   style="stop-color:#090A14"/>
      <stop offset="100%" style="stop-color:#0F1020"/>
    </linearGradient>

    <!-- Subtle radial bloom behind the S (violet) -->
    <radialGradient id="bloom" cx="50%" cy="50%" r="42%">
      <stop offset="0%"   style="stop-color:#6366F1;stop-opacity:0.14"/>
      <stop offset="100%" style="stop-color:#6366F1;stop-opacity:0"/>
    </radialGradient>

    <!-- Glow for drifting squares -->
    <filter id="squareGlow" x="-80%" y="-80%" width="260%" height="260%">
      <feGaussianBlur in="SourceGraphic" stdDeviation="3.5" result="blur"/>
      <feMerge>
        <feMergeNode in="blur"/>
        <feMergeNode in="SourceGraphic"/>
      </feMerge>
    </filter>

    <!-- S glow: white text + violet bloom -->
    <filter id="sGlow" x="-18%" y="-18%" width="136%" height="136%">
      <feGaussianBlur in="SourceGraphic" stdDeviation="12" result="blur"/>
      <feColorMatrix in="blur" type="matrix"
        values="0.24 0    0    0 0
                0    0.25 0    0 0
                0    0    0.95 0 0
                0    0    0    0.55 0" result="violetBloom"/>
      <feMerge>
        <feMergeNode in="violetBloom"/>
        <feMergeNode in="SourceGraphic"/>
      </feMerge>
    </filter>
  </defs>

  <g clip-path="url(#iconShape)">

    <!-- ── BACKGROUND ── -->
    <rect x="0" y="0" width="512" height="512" fill="url(#bgGrad)"/>
    <rect x="0" y="0" width="512" height="512" fill="url(#bloom)"/>

    <!-- ── GRID (56px spacing, 9 divisions) ── -->
    <!-- These are intentionally very faint — just like the site -->
    <g stroke="#6366F1" stroke-width="0.7" opacity="0.10">
      <!-- Horizontal -->
      <line x1="0" y1="56"  x2="512" y2="56"/>
      <line x1="0" y1="112" x2="512" y2="112"/>
      <line x1="0" y1="168" x2="512" y2="168"/>
      <line x1="0" y1="224" x2="512" y2="224"/>
      <line x1="0" y1="280" x2="512" y2="280"/>
      <line x1="0" y1="336" x2="512" y2="336"/>
      <line x1="0" y1="392" x2="512" y2="392"/>
      <line x1="0" y1="448" x2="512" y2="448"/>
      <!-- Vertical -->
      <line x1="56"  y1="0" x2="56"  y2="512"/>
      <line x1="112" y1="0" x2="112" y2="512"/>
      <line x1="168" y1="0" x2="168" y2="512"/>
      <line x1="224" y1="0" x2="224" y2="512"/>
      <line x1="280" y1="0" x2="280" y2="512"/>
      <line x1="336" y1="0" x2="336" y2="512"/>
      <line x1="392" y1="0" x2="392" y2="512"/>
      <line x1="448" y1="0" x2="448" y2="512"/>
    </g>

    <!-- ── DRIFTING SQUARES (the animated particles from the site) ── -->
    <!-- Varied sizes, opacities, and positions for an organic scatter feel -->
    <!-- Each is a small square aligned loosely to the grid -->

    <!-- Top area -->
    <rect x="52"  y="49"  width="8" height="8" rx="1.5" fill="#6366F1" opacity="0.45" filter="url(#squareGlow)"/>
    <rect x="358" y="94"  width="6" height="6" rx="1"   fill="#818CF8" opacity="0.35"/>
    <rect x="446" y="47"  width="9" height="9" rx="1.5" fill="#6366F1" opacity="0.40" filter="url(#squareGlow)"/>
    <rect x="108" y="108" width="7" height="7" rx="1.5" fill="#6366F1" opacity="0.30"/>

    <!-- Right side -->
    <rect x="450" y="168" width="8" height="8" rx="1.5" fill="#818CF8" opacity="0.38" filter="url(#squareGlow)"/>
    <rect x="392" y="280" width="6" height="6" rx="1"   fill="#6366F1" opacity="0.28"/>
    <rect x="460" y="335" width="9" height="9" rx="1.5" fill="#6366F1" opacity="0.42" filter="url(#squareGlow)"/>
    <rect x="390" y="450" width="7" height="7" rx="1.5" fill="#818CF8" opacity="0.32"/>

    <!-- Bottom area -->
    <rect x="275" y="454" width="8" height="8" rx="1.5" fill="#6366F1" opacity="0.38" filter="url(#squareGlow)"/>
    <rect x="108" y="446" width="6" height="6" rx="1"   fill="#6366F1" opacity="0.30"/>
    <rect x="52"  y="396" width="9" height="9" rx="1.5" fill="#818CF8" opacity="0.40" filter="url(#squareGlow)"/>

    <!-- Left side -->
    <rect x="48"  y="168" width="7" height="7" rx="1.5" fill="#6366F1" opacity="0.35"/>
    <rect x="56"  y="280" width="8" height="8" rx="1.5" fill="#818CF8" opacity="0.40" filter="url(#squareGlow)"/>
    <rect x="110" y="335" width="6" height="6" rx="1"   fill="#6366F1" opacity="0.28"/>

    <!-- A few mid-field, smaller/dimmer so they don't compete with S -->
    <rect x="168" y="112" width="5" height="5" rx="1"   fill="#6366F1" opacity="0.22"/>
    <rect x="340" y="168" width="5" height="5" rx="1"   fill="#6366F1" opacity="0.20"/>
    <rect x="168" y="400" width="5" height="5" rx="1"   fill="#818CF8" opacity="0.22"/>
    <rect x="340" y="390" width="6" height="6" rx="1"   fill="#6366F1" opacity="0.20"/>

    <!-- ── S LETTER ── -->
    <!-- Shadow/depth layer -->
    <text x="258" y="338"
          font-family="'Helvetica Neue', 'Arial Black', Arial, sans-serif"
          font-size="282"
          font-weight="900"
          text-anchor="middle"
          fill="#4F46E5"
          opacity="0.35"
          transform="translate(3,5)">S</text>
    <!-- Main S with violet glow -->
    <text x="256" y="336"
          font-family="'Helvetica Neue', 'Arial Black', Arial, sans-serif"
          font-size="282"
          font-weight="900"
          text-anchor="middle"
          fill="#FFFFFF"
          filter="url(#sGlow)">S</text>

  </g>
</svg>
